<?xml version="1.0" encoding="UTF-8"?>
<svg version="1.1" viewBox="0 0 2048 1113" width="609" height="331" xmlns="http://www.w3.org/2000/svg">
<path transform="translate(1414,595)" d="m0 0h9l5 6v117l50-7 23-3 4-1h10l5 5v185l-4 10-18 22-4 8v9l6 7 8 4 18 3 15-1 16-3 15-5 6-3h2v-177l-1-29-4-8-5-5-8-5-4-2 1-2 24-4 39-6 21-3h10l4 2 1 2 1 215 4 13 4 5 4 1v-308l-2-11-6-8-9-5-4-3 3-2 30-5 33-5 21-3h9l4 4 1 3v110l16-6 13-3 10-1h18l16 3 17 7 15 10 10 9 2 1v2h2l9 11 9 13 10 19 6 17 4 16 2 14v35l-4 23-6 18-8 16-9 14-12 13-12 10-17 9-19 5-5 1h-17l-20-5-19-9-10-6-1 9-6 7-26 1h-29l-39-1 2-5-7 2-45 6-7 1h-9l-4-4-2-11-19 7-18 5-15 3h-29l-19-5-14-8-11-11-8-16-3-12-1-10-1-162-4-9-5-5-4-2 1 210 2 9 6 8 10 6 2 1-1 3h-99l-21-1v-2l13-8 6-9 1-5v-18h-2l-2 4-8 9-11 9-11 8-19 9-14 4-15 3h-21l-22-5-16-6-15-9-13-11-11-11-11-15-10-19-7-21-3-16v-40l5-22 6-17 8-15 11-16 5-6h2l1-3 8-7 10-8 16-9 16-6 13-3 25-1 17 2 16 5 17 8 12 8 11 9 10 10v2h2v-114l-4-10-8-7-8-4 1-3 30-5zm-160 110-7 4-8 9-11 21-8 24-3 12-2 18v28l3 21 5 19 6 15 9 17 13 16 9 8 11 7 11 5 7 2 14 1 13-2 13-5 11-7 9-8v-106l-5 2-8 6-9 3-6 1h-10l-13-4-8-6-7-8-4-9-1-5v-16l3-9 6-10 9-11 3-7v-10l-4-6-5-4-16-5-8-1zm510 7-10 3-3 2v224l8 4h19l11-5 10-8 9-11 8-14 6-14 5-18 3-15 2-19v-23l-4-31-6-22-8-18-7-11-10-12-10-7-9-4-6-1z" fill="#012EA2"/>
<path transform="translate(48,511)" d="m0 0h39l63 1 42 1 98 1 38 1 10 3 15 9 13 11 7 7 11 16 9 19 5 19 2 15v28l-2 14-6 21-8 16-9 14-12 13-10 9-3 2 25 10 11 6 13 10 9 9 7 8 7 11 7 17 4 14 3 21v16l-4 22-5 16-7 16-9 13-11 12-8 7-14 9-12 6-14 4-19 3-35 1-94 2-35 1-93 1h-30l-2-3 1-5 7-3 6-3 10-9 5-6 2-7 1-11-1-13v-71l1-191v-100l-4-7-8-7-17-9-3-3 1-5zm154 13v202l5-3 14-10 12-11 8-11 8-14 6-14 4-14 1-9v-30l-3-15-4-12-8-15-12-16v-5l5-4 28-2h87l-1-3-14-9-8-4-41-1zm43 27 1 4 10 15 5 11 5 16 3 18v21l-3 19-7 21-8 15-12 16-9 9-9 7v2l6-1 11-6 11-8 9-9 9-13 8-14 7-16 4-18v-39l-5-21-9-20-6-9zm-23 194v2l19 14 12 11 13 17 10 17 8 19 4 18 1 10v25l-3 17-7 17-2 3v4l6 1 6-5 10-18 6-16 2-12v-22l-2-14-7-21-8-16-9-12-9-10-9-9-13-9-17-9-7-2zm-20 3v205h45l67-1 22-1 19-3 14-5 15-9 6-7-49 1-19 1h-38l-16-3-1-4 4-12 6-15 3-15 1-7v-15l-3-23-5-16-8-16-7-11-8-10-11-12-11-9-17-10z" fill="#012EA2"/>
<path transform="translate(973,595)" d="m0 0h7l5 3 1 4v212l14-2 19-9 12-8 16-12 12-11 10-9 6-10 1-5v-15l-3-8-4-6-8-6-12-5v-2h111v3l-14 3-16 7-16 10-16 13-13 11-7 7-8 7-8 8-5 4-1 3 8 11 10 21 16 41 13 35 13 30 10 18 8 10 1 3 4 2 10 6 11 3 1 2-2 1h-98l-7-3-8-9-8-16-11-27-14-38-10-25-8-16-5-8-4-3v83l1 36 4 11 4 5 13 8-1 2h-119l-3-2 5-3 9-6 5-6 3-10v-64h-1l-4 13-7 16-10 16-11 13-9 9-12 9-14 8-16 6-18 4h-28l-22-5-18-8-15-10-12-11-7-7-10-14-8-14-3-6v-3l-3 3-10 19-11 15-16 16-13 9-16 8-15 5-14 3h-28l-25-6-16-8-11-7-10-8-12-12-10-14-8-14-8-21-5-22v-42l5-23 8-20 6-11 10-14 9-10 9-9 13-9 17-9 16-5 12-2h27l13 2 18 6 17 9 12 9 16 16 10 14 10 18 1 3 2 1 3-9 6-11 10-14 12-14 14-11 15-9 16-6 12-3 7-1h27l13 2 16 5 19 10 13 10 14 14 11 15 10 19 6 17v2h2l-1-162-4-11-7-7-10-5 1-3 30-5 47-7zm-409 110-10 5-8 10-8 20-5 23-2 13-3 44v32l3 41 4 24 6 21 8 16 9 8 7 3h11l8-4 5-5 4-5 6-13 6-21 4-27 2-28 1-30-2-35-2-25-4-24-6-20-6-11-6-7-7-4-4-1zm221 0-7 3-7 6-6 10-7 19-5 25-3 30v73l4 36 5 22 6 16 6 10 8 7 7 3h10l7-3 8-7 6-10 5-13 5-21 3-22 1-13v-80l-2-22-3-20-6-23-8-15-4-5-8-5-4-1z" fill="#012EA2"/>
<path transform="translate(233,97)" d="m0 0h6l4 4 1 3v108l31-10 15-3 9-1h22l14 3 13 5 13 9 8 10 7 16 3 16 1 31h2l3-11 8-17 7-11 7-9 11-12 9-8 16-10 14-6 19-5 8-1h21l18 4 13 5 16 9 11 9 9 9 10 13 9 16 8 21 3 11-1 4-147 1v10l2 19 4 18 6 18 10 19 8 11 8 9 12 9 12 6 10 3 7 1h9l14-3 16-8 10-8 7-7 3-1 1 3-9 13-12 14-12 11-16 10-14 6-14 4-13 2h-20l-18-3-16-6-15-8-14-11-11-11-10-13-10-17-6-15-2-7-1 2v62l3 9 6 7 10 6 1 3h-118v-3l13-8 6-12 1-6v-108l1-55 6-11 9-10 8-11 3-8-2-7-4-5-8-4-12-3h-20l-18 4-19 7-1 1v213l2 9 8 9 11 6-1 2-127 1-8 2h-25l-16-6-10-7-8-8-8-14-3-12v-205h-21l-1-2 7-2 24-4 19-7 15-8 12-9 12-11 6-7h3l1 46 30 1v-62l-2-13-4-8-7-6-9-4 1-2 15-3 61-9zm255 104-8 4-6 5-8 14-5 13-4 17-3 21-1 21 5 1h74v-15l-2-19-5-26-6-16-7-11-7-6-8-3zm-351 7-1 1v45l1 164 3 9 8 8 13 5 4-2 2-5 1-9v-215l-1-1z" fill="#012EA2"/>
</svg>
